<?xml version="1.0" encoding="UTF-8"?><svg id="a" xmlns="http://www.w3.org/2000/svg" width="1682.6" height="1682.6" viewBox="0 0 1682.6 1682.6"><path d="M1682.6,441.5V95.9C1682.7,42.6,1639.2,0,1586.8,0h-345.6C1188.2,0,1145.3,42.9,1145.3,95.8c0,52.9,42.9,95.8,95.8,95.8h114.3s-319.9,319.9-319.9,319.9c-37.4,37.4-37.4,98.1,0,135.5,37.4,37.4,98.1,37.4,135.5,0l319.9-319.9v114.2c0,52.9,42.9,95.8,95.8,95.8,52.9,0,95.8-42.9,95.8-95.8Z"/><path d="M441.5,1490.9h-114.2s335.7-335.7,335.7-335.7c37.4-37.4,37.4-98.1,0-135.5-37.4-37.4-98.1-37.4-135.5,0l-335.7,335.7v-114.3c0-52.9-42.9-95.8-95.8-95.8-52.9,0-95.9,42.9-95.8,95.8v345.6c0,51.6,42,95.9,95.9,95.9h345.6c52.9,0,95.8-42.9,95.8-95.8s-42.9-95.8-95.8-95.8Z"/><path d="M0,95.9v345.6C0,494.4,42.9,537.3,95.8,537.3c52.9,0,95.8-42.9,95.8-95.8v-114.3s319.9,319.9,319.9,319.9c37.4,37.4,98.1,37.4,135.5,0s37.4-98.1,0-135.5L327.2,191.7h114.2c52.9,0,95.8-42.9,95.8-95.8S494.4,0,441.5,0H95.9C43.3,0,0,43.2,0,95.9Z"/><path d="M1682.6,1586.7v-345.6c0-52.9-42.9-95.8-95.9-95.8-52.9,0-95.9,42.9-95.8,95.8v114.2s-335.7-335.7-335.7-335.7c-37.4-37.4-98.1-37.4-135.5,0s-37.4,98.1,0,135.5l335.7,335.7h-114.3c-52.9,0-95.8,42.9-95.8,95.8,0,52.9,42.9,95.8,95.8,95.8h345.6c54,0,95.9-44.2,95.9-95.9Z"/></svg>